<svg width="79" height="100" viewBox="0 0 79 100" fill="none" xmlns="http://www.w3.org/2000/svg">
<path d="M35.2064 0H51.5478V74.898C43.1774 76.4812 37.0154 77.1042 30.3483 77.1042C10.3895 77.0833 0 68.1667 0 51.0417C0 34.5417 11.0204 23.8333 28.0979 23.8333C30.7479 23.8333 32.7668 24.0418 35.2064 24.6666V0ZM35.779 38.1641C33.8651 37.539 32.288 37.3307 30.2688 37.3307C22.0037 37.3307 17.2296 42.3723 17.2296 51.2076C17.2296 59.8098 21.7936 64.5597 30.1639 64.5597C31.9724 64.5597 33.4446 64.4579 35.779 64.1453V38.1641Z" fill="#2BA977"/>
<path d="M78.2706 25.8441V63.3445C78.2706 76.2589 77.3033 82.4693 74.464 87.8237C71.8139 92.9714 68.3228 96.2174 61.1091 99.8026L45.9456 92.657C53.1593 89.3045 56.6503 86.3422 58.8799 81.8215C61.214 77.1987 61.9501 71.8443 61.9501 57.761V25.8444H78.2706V25.8441ZM60.3034 0H76.6447V16.6042H60.3034V0Z" fill="#2BA977"/>
</svg>
